<svg xmlns="http://www.w3.org/2000/svg" width="70.589" height="50" viewBox="0 0 70.589 50">
  <path id="youtube_1_" data-name="youtube (1)" d="M69.027,10.644l.088.576a8.949,8.949,0,0,0-6.082-6.212l-.062-.015C57.468,3.5,35.324,3.5,35.324,3.5S13.236,3.471,7.677,4.994a8.953,8.953,0,0,0-6.126,6.165l-.015.062a98.393,98.393,0,0,0,.091,35.138l-.091-.582a8.949,8.949,0,0,0,6.082,6.212L7.68,52c5.5,1.5,27.647,1.5,27.647,1.5s22.085,0,27.647-1.5A8.951,8.951,0,0,0,69.1,45.838l.015-.062a91.956,91.956,0,0,0,1.471-16.612c0-.215,0-.432,0-.65,0-.2,0-.438,0-.676a94.87,94.87,0,0,0-1.562-17.194ZM28.259,39.238V17.788L46.689,28.529Z" transform="translate(0 -3.5)" fill="#fff"/>
</svg>
